<svg role="img" viewBox="0 0 24 24" xmlns="http://www.w3.org/2000/svg"><title>Tenable</title><path d="M0 7.758h4.902v1.424H3.037v1.07h1.761v1.35h-1.76v1.14h1.904v1.424H1.173V7.758H0zm3.037 0h.693V5.55h1.865v2.208h1.113v1.424H5.595v2.562c0 .416.16.598.553.598.205 0 .401-.039.56-.091v1.35a3.457 3.457 0 01-1.1.182c-1.24 0-1.708-.624-1.708-1.714V9.182h-.863V7.758zm7.325 0h1.761l1.334 4.225h.026l1.322-4.225h1.787l-2.171 6.408h-1.892l-2.167-6.408zm6.22 0h1.865v1.041h.026c.377-.767 1.048-1.18 1.904-1.18.598 0 1.126.195 1.477.598.403.455.546 1.048.546 1.87v4.08h-1.865v-3.586c0-.585-.182-.988-.702-.988-.533 0-.793.39-.793 1.1v3.474h-1.865V7.758h-.593zm6.103-2.208h1.864v8.616h-1.864V5.55zm-10.673 7.874a2.83 2.83 0 01-1.633.455c-1.477 0-2.42-.936-2.42-2.452 0-1.308.754-2.413 2.166-2.413 1.62 0 2.27 1.218 2.27 2.725H9.823c.052.494.364.806.936.806.377 0 .65-.13.91-.364l1.343.884v.36zm-.819-2.348c-.026-.416-.26-.767-.715-.767-.468 0-.715.325-.767.767h1.482zm7.36-1.945h.026c.377-.78 1.074-1.166 1.93-1.166 1.412 0 2.114 1.218 2.114 2.491 0 1.386-.754 2.452-2.205 2.452-.689 0-1.269-.273-1.631-.858h-.026v2.556l-1.865.442V7.758h1.631l.026 1.373zm.026 1.621c0 .65.312 1.1.884 1.1.572 0 .884-.455.884-1.1 0-.65-.312-1.105-.884-1.105-.572 0-.884.455-.884 1.105z"/></svg>