<svg xmlns="http://www.w3.org/2000/svg" width="1080" height="1080" viewBox="0 0 1080 1080" fill="none"><path d="M178.39 344.68H122.81L225.22 506.89L280.68 506.92L178.39 344.68Z" fill="#00B6F1"></path><path d="M224.82 552.62L110 732.97H164.04L278.94 552.7L224.83 552.63L224.82 552.62Z" fill="#00B6F1"></path><path d="M411.27 344.68H357.23L294.5 443.2L321.42 485.8L411.27 344.68Z" fill="white"></path><path d="M293.57 615.18L367.94 732.97H423.09L321.23 571.35L293.57 615.18Z" fill="white"></path><path d="M503.35 342.46C468.66 342.46 440.44 370.75 440.44 405.53C440.44 440.31 468.66 468.6 503.35 468.6C538.04 468.6 566.26 440.31 566.26 405.53C566.26 370.75 538.04 342.46 503.35 342.46ZM547.43 405.53C547.43 417.81 542.89 429.21 534.65 437.65C526.42 446.07 515.31 450.71 503.35 450.71C478.63 450.71 459.27 430.87 459.27 405.53C459.27 380.19 478.63 360.35 503.35 360.35C528.07 360.35 547.43 380.19 547.43 405.53Z" fill="white"></path><path d="M626.95 344.16H579.45V467.07H596.6V423.87H626.95C650.27 423.87 666.56 407.38 666.56 383.77C666.56 360.16 651.01 344.16 626.95 344.16ZM596.6 360.15H625.3C640.09 360.15 648.92 368.92 648.92 383.6C648.92 398.28 639.85 407.87 624.65 407.87H596.6V360.14V360.15Z" fill="white"></path><path d="M729.05 399.57L708.87 394.65C697.69 391.82 692.48 386.27 692.48 377.19C692.48 365.54 702.2 358.01 717.25 358.01C730.57 358.01 738.55 364.56 739.73 376.47L739.97 378.87H757.29L757.02 375.97C755.1 355.03 739.93 342.02 717.42 342.02C692.25 342.02 675.34 356.22 675.34 377.36C675.34 394.6 685.76 406.23 705.45 410.99L725.36 415.92C736.62 418.55 741.87 424.2 741.87 433.7C741.87 445.53 732.06 452.88 716.28 452.88C701.71 452.88 691.92 445.87 691.35 435.03L691.22 432.51H673.67L673.89 435.38C675.46 455.83 692.1 469.05 716.29 469.05C742.25 469.05 759.03 454.92 759.03 433.04C759.03 415.88 748.67 404.31 729.08 399.58L729.05 399.57Z" fill="white"></path><path d="M526.15 591.44L565.52 529.53L579.66 507.42H464.62L448.54 532.65H533.72L481.02 615.4H508.73C545.84 615.4 567.13 632.3 567.13 661.76C567.13 691.22 546.87 712.13 515.52 712.13C484.17 712.13 467.31 694.11 467.31 663.92V661.19H439.92V663.92C439.92 708.72 469.6 737.67 515.52 737.67C561.44 737.67 595.14 706.71 595.14 662.38C595.14 623.47 567.62 595.44 526.15 591.45V591.44Z" fill="white"></path><path d="M693.34 576.9C685.29 576.9 677.77 578.22 670.18 580.99L717.05 507.43H685.15L636.95 583.11C618.28 612.35 609.4 630.79 609.4 656.52C609.4 702.03 645.46 737.68 691.49 737.68C737.52 737.68 772.65 702.79 772.65 656.52C772.65 610.25 739.29 576.9 693.34 576.9ZM744.95 656.82C744.95 688.87 722.47 712.13 691.49 712.13C660.51 712.13 637.41 689.38 637.41 656.82C637.41 624.26 659.65 601.81 691.49 601.81C723.33 601.81 744.95 624.43 744.95 656.82Z" fill="white"></path><path d="M878.96 503.1C823.47 503.1 787.61 549.26 787.61 620.7C787.61 655.44 795.92 684.75 811.63 705.45C827.79 726.73 851.07 737.99 878.96 737.99C906.85 737.99 929.9 726.74 946.02 705.45C961.71 684.73 970 655.43 970 620.7C970 549.26 934.26 503.1 878.96 503.1ZM942.92 620.69C942.92 678.14 919.01 712.44 878.96 712.44C838.91 712.44 815 678.14 815 620.69C815 563.24 838.91 528.94 878.96 528.94C919.01 528.94 942.92 563.24 942.92 620.69Z" fill="white"></path></svg>